<?xml version="1.0" encoding="utf-8"?>
<!-- Generator: Adobe Illustrator 20.1.0, SVG Export Plug-In . SVG Version: 6.00 Build 0)  -->
<svg version="1.1" id="Calque_1" xmlns="http://www.w3.org/2000/svg" xmlns:xlink="http://www.w3.org/1999/xlink" x="0px" y="0px"
	 viewBox="0 0 800 800" style="enable-background:new 0 0 800 800;" xml:space="preserve">
<style type="text/css">
	.st0{fill:#F0F0F0;}
</style>
<g>
	<g>
		<path class="st0" d="M417.3,355.5c-3.3,2.5-7,4.3-11.1,5.2c-1.6,0.3-2.6-0.2-2.8-1.6c-0.4-2.8-1.2-5.7-0.8-8.3
			c1-6.1,2.8-12.1,4.2-18.2c0.8-3.2-1.6-8.2-4.3-9.2c-2.2-0.8-4.9,1-7,4.5c-0.2,0.3-0.3,0.6-0.5,0.9c-4.4,9.5-5.6,19.6-5.3,29.9
			c0.2,5.3,2.2,9.7,5.9,13.3c1.2,1.1,3.2,2.1,4.8,2.1c2.5,0,5.2-0.4,7.3-1.6c3.9-2.2,7.6-4.8,11-7.7c0.6-0.5,1-0.8,1.5-1
			C422.1,358.8,420.7,356,417.3,355.5z"/>
	</g>
	<g>
		<path class="st0" d="M289.7,328.6c0.4-0.6,0.9-1.2,1.2-2c5-14.2,10-28.4,15-42.5c0.4-1,0.8-2,1.3-2.9c2.6-4,6.8-4.3,9.9-0.7
			c1.3,1.4,1.7,2.9,0.9,4.8c-3.9,8.6-8,17.2-11.5,26c-4.1,10.3-7.9,20.8-11.6,31.3c-1,2.9-1.1,6.2-1.2,9.3c0,1.5,0.5,3.5,1.6,4.5
			c4.4,4.3,3.3,6.9,0.5,12.3c-0.7,1.3-1.8,2.4-2.9,3.4c-1.9,1.7-4.6,1.8-6.3-0.1c-3.4-3.6-5.2-7.7-3.7-12.9
			c1.7-6.1,3.1-12.2,4.6-18.4c0.2-0.6,0.1-1.7-0.3-2c-0.5-0.3-1.5-0.1-2,0.2c-0.8,0.5-1.5,1.2-2.1,2c-7,8.8-13.8,17.8-22.9,24.6
			c-3.3,2.5-6.8,4.8-11.3,4.7c-3.9-0.1-8.5-6.7-6.1-9.7c7-8.7,11.8-19.2,20.9-26.2c3.5-2.7,7.1-5.2,10.7-7.7
			c3.7-2.5,7.6-3.3,11.7-1.1C287.4,326.1,288.3,327.3,289.7,328.6z"/>
	</g>
	<g>
		<path class="st0" d="M495.8,349.8c0.6-0.8,1.3-1.5,1.9-2.3c4.6-5.9,9.6-11.6,13.8-17.7c3.6-5.1,11.1-3.8,12.9,0.9
			c1.3,3.3,2.3,6.7,3.2,10.2c1,4.1,1.6,8.3,2.5,12.5c1.9,8.2,5.8,9,13.7,6c3.1-1.2,5.7-3.3,8.5-5.1c1.5-0.9,2.9-1.4,4.3-0.1
			c1.5,1.4,1.4,3.2,0.2,4.5c-5.4,6.6-11.2,12.8-19.7,15.5c-2.7,0.8-5.4,0.3-8-0.9c-5.5-2.7-9.3-6.8-10.4-13.1c-0.8-4.5-2-8.9-3-13.4
			c-0.2-0.7-0.6-1.3-1.1-2.2c-2.6,3.1-5,5.8-7.3,8.6c-5.1,6-10.2,11.9-16.7,16.4c-3.5,2.5-5.7,2.7-8.2,1c-3.2-2.2-5.2-7-4.2-10.2
			c1.3-4.3,2.9-8.5,4.1-12.8c1.7-5.8,3.3-11.7,4.9-17.5c1.3-4.7,5.1-7.4,9.2-6.2c3.6,1,6.1,6.1,4.7,10.1c-1.5,4.3-3.5,8.4-5.2,12.7
			c-0.4,1-0.6,2.1-0.9,3.1C495.3,349.5,495.6,349.6,495.8,349.8z"/>
	</g>
	<g>
		<path class="st0" d="M349.9,329c-1.2,2.4-2.1,5.1-3.7,7.2c-5.4,7-11.6,13-20.1,16.3c-2.3,0.9-4.5,4.9-4.2,7.4
			c0.2,2,1.7,3.2,3.6,2.7c1.6-0.4,3.3-1.2,4.7-2.1c2.1-1.2,4-2.7,6-4.1c1.7-1.1,3.3-1.5,4.9,0.2c2,2.2,2.6,3.9,0.9,5.7
			c-2.9,3-6.1,5.8-9.4,8.4c-2.2,1.7-4.8,3.1-7.3,4.4c-3.5,1.8-6.8,1.4-9.6-1.3c-4.6-4.5-6.1-10.1-4.7-16.2c0.8-3.5,0.8-6.3-0.8-9.9
			c-2.2-4.9-1.2-9.4,5.4-10c3.4-0.3,6.2-1.7,7.6-5.2c0.5-1.1,1.7-2,2.7-2.9c3.3-2.8,6.7-5.4,10.1-8.1c2.7-2.1,5.7-1.7,8.5-0.4
			C347.4,322.6,349.4,325.1,349.9,329z"/>
	</g>
	<g>
		<path class="st0" d="M360.9,344c-0.4-7-0.3-13.9,2.4-20.6c2.1-5,5.7-8.8,9.4-12.4c2.8-2.8,11.3-3.2,14.4-0.8
			c1.2,0.9,2.2,2.8,2.3,4.3c0.2,4.9-1,6.1-5.7,7.2c-7.5,1.8-9.9,4.6-10.8,13.1c-0.4,4.1,0.1,8.4-0.5,12.5
			c-1.5,11.2-0.5,22.9-7.6,32.8c-3.9,5.5-9.5,8.8-15.1,12c-2.4,1.4-7.1-0.7-8.8-3.2c-1.6-2.5-1.3-6.5,0.8-8.5
			c0.6-0.6,1.8-0.9,2.7-0.8c5.4,0.6,8.9-1.9,11.4-6.3c3.6-6.3,4.5-13.3,4.9-20.4C361,350,360.9,347,360.9,344z"/>
	</g>
	<g>
		<path class="st0" d="M409.8,278.5c2.3-0.4,3.8,0.9,4.9,2.9c1.6,3.1,3.4,6.1,4.7,9.3c1.2,3-1,7.7-3.8,8.9c-2.6,1.1-6.9-0.5-8.7-3.2
			c-1-1.5-2-3.1-3.3-4.4c-2.6-2.6-3.2-5.6-1.8-8.7C403.3,280.2,405.9,278.3,409.8,278.5z"/>
	</g>
</g>
<g>
	<path class="st0" d="M368.9,464.3c0.4-0.3,0.9-0.5,1.3-0.9c5.9-6.1,11.8-12.2,17.8-18.2c1.7-1.7,3.8-2.9,6-4
		c4.4-2.2,9-0.4,10.3,4.3c0.8,2.9,0.8,6.1,1.2,9.1c0.1,0.8,0,1.6,0,2.3c0.3,0.1,0.5,0.3,0.8,0.4c3-2.9,6-5.7,9-8.7
		c1.8-1.8,3.3-3.7,5-5.5c0.6-0.7,1.4-1.2,2.1-1.7c6.4-4.2,10.6-0.4,11.9,5.7c0.6,2.8-0.2,5.8,0,8.7c0.2,3.1,0.5,6.3,1.2,9.3
		c0.6,2.8,3,4.3,5.9,3.8c2.6-0.5,5.3-1.2,7.5-2.5c3.2-1.8,6.1-3.8,8.7-6.7c5.9-6.6,12.2-12.8,18.7-18.8c2.7-2.6,6.1-4.5,9.5-6.3
		c4-2.2,7.8-0.9,11,2c3.1,2.9,3.8,6.5,2.8,10.5s-2.2,8-3,12.1c-0.8,4-0.1,7.8,3,10.8s7,2.6,10.6,1.4c3-1,5.9-2.4,8.4-4.3
		c1.3-0.9,1.7-3.1,2.2-4.8c1.9-6.5,3.7-13.1,5.4-19.7c1.2-4.6,4.9-7.2,9-6.1c3.5,0.9,6.2,6,4.8,10c-1.5,4.3-3.5,8.4-5.2,12.7
		c-0.4,1-0.7,2.1-1,3.2c0.2,0.1,0.4,0.2,0.6,0.3c0.4-0.3,0.9-0.5,1.2-0.9c5.1-6.5,10.1-13,15.2-19.5c3.3-4.2,9.5-3.9,12.1,0.7
		c1.3,2.3,2.2,4.8,2.8,7.4c1.4,5.8,2.3,11.8,3.8,17.6c1.2,4.9,4.1,6.7,8.9,5.4c3.2-0.8,6.3-2.5,9.3-4c1.5-0.7,2.7-2,4.2-2.6
		c1-0.4,2.7-0.4,3.4,0.2c0.8,0.7,0.8,2.3,1,3.5c0.1,0.4-0.3,1-0.6,1.3c-5,5.8-10.3,11.3-17.5,14.5c-5.3,2.3-9.8,0.7-13.9-2.5
		c-3.7-2.9-6.1-6.6-6.7-11.5c-0.5-4.3-1.9-8.4-2.9-12.6c-0.2-0.7-0.6-1.3-1.1-2.2c-3.3,3.8-6.1,7.5-9.3,10.8
		c-4.6,4.8-9.3,9.5-14.4,13.8c-5,4.1-8.7,3.1-11.8-2.7c-0.9-1.6-1.6-1.6-3.1-0.8c-3.1,1.7-6.3,3.4-9.6,4.7
		c-6.2,2.4-13.2-0.7-16.7-7.3c-1.7-3.3-3.3-6.7-5.1-10.3c-0.7,0.8-1.2,1.4-1.8,2.1c-5.6,6.9-11,14-18.7,18.9c-4,2.6-8.2,3-12.6,1
		c-3.9-1.7-5.3-4.8-3.9-8.9c0.1-0.3,0.1-0.6,0.4-1.6c-1.1,0.8-1.7,1.2-2.3,1.6c-1.6,1.2-3.1,2.5-4.8,3.6c-6.1,3.8-10.5,2.3-13.5-4.3
		c-2.5-5.5-3.8-11.2-4.1-17.1c0-0.7-0.5-1.5-0.7-2.2c-0.6,0.4-1.4,0.8-1.9,1.3c-5,5.3-9.9,10.8-14.9,16.1c-0.9,0.9-2.1,1.7-3.3,2.1
		c-4.3,1.5-7.8-1.3-9.1-6c-1.3-4.9-0.3-9.5,0.3-14.3c0.1-0.9-0.4-1.9-0.7-2.9c-0.9,0.3-2.1,0.4-2.6,1.1c-3.4,4.1-6.6,8.4-9.8,12.5
		c-3.5,4.5-6.8,9-10.6,13.3c-1.8,2-4.2,3.6-6.5,4.9c-2.5,1.5-5.2,1.6-7.7-0.4c-2.6-2.1-4.6-4.7-3.5-8.2c1.3-4.1,3.2-8,4.7-12.1
		c2.4-6.5,4.9-13.1,6.9-19.7c0.9-3.1,0.9-6.5,2.9-9.4c1.6-2.4,3.5-4.2,6.4-4s4.3,2.5,5.6,4.8c1.3,2.4,1.1,4.5-0.3,6.9
		c-2.3,4.2-4.1,8.7-6.1,13.1c-0.6,1.3-1.5,2.6-2.2,3.9c-0.3,0.6-0.5,1.3-0.7,2C368.5,464.1,368.7,464.2,368.9,464.3z M481,451.2
		c-5.4,0.9-18.3,16.9-18.6,21.9C467.4,472.3,481.5,455.8,481,451.2z"/>
</g>
<g>
	<path class="st0" d="M245.9,457c0.9-0.7,1.8-1.4,2.6-2.2c2.8-2.8,5.5-5.8,8.4-8.6c2.1-2.1,4.5-3.7,7.6-3.8c4.3-0.2,8,2.1,9.4,6.7
		c1.5,4.7,2.4,9.6,3.7,14.5c0.5,1.8,1,3.7,1.9,5.4c1.4,2.8,3.2,2.8,6.2,2.4c5.6-0.9,7.3-4.3,8.4-9.3c1.3-6.2,3.5-12.1,5.3-18.2
		c0.9-3,3.2-4.4,6.1-4.7c2.7-0.2,4.8,1.2,5.8,3.6c0.6,1.4,0.7,3.3,0.2,4.7c-1.8,5.6-4,11.1-6,16.6c-0.2,0.7-0.4,1.4-0.6,2.5
		c0.9-0.2,1.5-0.2,1.9-0.5c7-4.9,14.1-9.8,19.3-16.8c2-2.7,4.7-3.8,7.9-4c3.1-0.2,5.5,1.6,5.8,4.7c0.5,5.7,0.6,11.5,0.8,17.2
		c0.2,3.5,0.1,7.1,0.6,10.6c0.2,1.6,1.4,3.2,2.5,4.5c1.9,2.3,3.3,4.6,1.7,7.7c-1.3,2.4-5.5,4.8-8.3,4.1c-1.5-0.3-3.3-1.4-3.9-2.6
		c-1.6-3.4-2.9-7-3.8-10.7c-0.9-4.1-1.2-8.4-1.9-12.6c-0.1-0.9-0.8-1.8-1.2-2.6c-0.8,0.5-1.6,1-2.3,1.6
		c-5.7,5.8-11.4,11.7-18.8,15.5c-4.2,2.2-8.4,1.5-11.4-2.2c-1.1-1.3-1.8-1.3-3.1-0.5c-2.5,1.5-5,3-7.6,4.2c-4.3,1.8-7.6,0.7-10.5-3
		c-4-5.1-5.8-11.2-7.8-17.1c-0.9-2.6-1.9-5.2-3.2-8.6c-1.9,2.1-3.4,3.6-4.6,5.3c-3.2,4.5-6.1,9.3-9.5,13.7
		c-2.7,3.6-5.8,6.9-8.9,10.1c-2.7,2.7-4.4,2.5-6.8-0.5c-2.5-3.1-3.4-6.4-1.9-10.2c4.8-12.5,9.5-25,14.5-37.4
		c3.5-8.7,7.3-17.3,11-25.9c0.4-1,1.1-1.9,1.7-2.8c2.4-3.5,3.4-3.9,7.5-2.8c2.5,0.6,5.2,3.8,5.1,6.5c-0.1,1.4-0.9,2.8-1.7,4.1
		c-4.7,7.9-9.6,15.8-14.2,23.8c-2.9,5.2-5.4,10.6-8.1,16c-0.2,0.4-0.3,0.9-0.4,1.4C245.6,456.7,245.7,456.8,245.9,457z"/>
</g>
<path class="st0" d="M399.5,691.8c-0.2-5.6,4.2-10.3,9.8-10.5l0,0c5.6-0.2,10.3,4.2,10.5,9.8l0,0c0.2,5.6-4.2,10.3-9.8,10.5l0,0
	c-0.1,0-0.2,0-0.3,0l0,0C404.2,701.6,399.7,697.3,399.5,691.8z M367.9,700.2L367.9,700.2L367.9,700.2c-5.6-0.6-9.6-5.6-9.1-11.2l0,0
	c0.6-5.6,5.6-9.6,11.2-9v-0.1c5.6,0.6,9.6,5.6,9.1,11.2l0,0c-0.5,5.2-5,9.2-10.2,9.2l0,0C368.6,700.3,368.2,700.3,367.9,700.2z
	 M440.1,688.9c-1-5.6,2.7-10.8,8.3-11.7v-0.1c5.6-1,10.8,2.7,11.8,8.3l0,0c0.9,5.6-2.7,10.8-8.3,11.8l0,0l0,0l0,0
	c-0.6,0.1-1.2,0.1-1.8,0.1l0,0C445.3,697.3,441,693.9,440.1,688.9z M326.4,692.9c-5.4-1.3-8.8-6.9-7.5-12.3l0,0
	c1.4-5.5,6.9-8.8,12.4-7.5l0,0c5.4,1.4,8.8,6.9,7.5,12.4l0,0c-1.2,4.6-5.3,7.7-9.9,7.7l0,0C328,693.3,327.2,693.1,326.4,692.9z
	 M480,680.4c-1.8-5.3,1.2-11.1,6.5-12.8l0,0c5.3-1.7,11.1,1.2,12.8,6.5l0,0c1.7,5.4-1.2,11.1-6.6,12.9l0,0c0,0,0,0,0-0.1l0,0
	c-1,0.4-2.1,0.5-3.1,0.5l0,0C485.4,687.5,481.4,684.8,480,680.4z M286.3,680c-5.2-2.1-7.7-8-5.6-13.2l0,0c2-5.2,8-7.7,13.2-5.6l0,0
	c5.2,2.1,7.7,8,5.6,13.2l0,0c-1.6,4-5.4,6.4-9.4,6.4l0,0C288.8,680.7,287.5,680.5,286.3,680z M518.3,666.5c-2.5-5-0.4-11.1,4.6-13.6
	l0,0c5.1-2.5,11.2-0.4,13.6,4.7l0,0c2.5,5,0.4,11.1-4.7,13.6l0,0l0,0l0,0c-1.4,0.7-2.9,1-4.5,1l0,0
	C523.6,672.2,520,670.1,518.3,666.5z M248.3,661.5L248.3,661.5L248.3,661.5c-4.9-2.8-6.6-9-3.7-13.9l0,0c2.8-4.9,9-6.5,13.9-3.7l0,0
	c4.9,2.8,6.5,9,3.7,13.9l0,0c-1.9,3.3-5.3,5.1-8.8,5.1l0,0C251.7,662.9,250,662.5,248.3,661.5z M554.2,647.3
	c-3.1-4.7-1.9-11,2.7-14.1v-0.1c4.7-3.1,11-1.9,14.2,2.8l0,0c3.1,4.6,1.9,11-2.8,14.1l0,0l0,0l0,0c-1.7,1.2-3.7,1.8-5.7,1.8l0,0
	C559.3,651.8,556.1,650.3,554.2,647.3z M213.4,638c-4.4-3.5-5.2-9.8-1.8-14.3l0,0c3.5-4.4,9.8-5.2,14.3-1.8l0,0
	c4.4,3.5,5.2,9.9,1.7,14.3l0,0c-2,2.6-5,3.9-8,3.9l0,0C217.5,640.1,215.2,639.4,213.4,638z M587.1,623.3c-3.7-4.1-3.4-10.6,0.7-14.3
	v-0.1c4.2-3.7,10.7-3.4,14.4,0.7l0,0c3.8,4.2,3.5,10.7-0.7,14.4l0,0c-2,1.8-4.3,2.6-6.8,2.6l0,0
	C591.9,626.7,589.1,625.5,587.1,623.3z M182.1,609.8c-3.9-4.1-3.8-10.5,0.2-14.4l0,0c4.1-3.9,10.5-3.8,14.5,0.2l0,0
	c3.9,4.1,3.8,10.5-0.3,14.4l0,0c-2,2-4.5,2.8-7.1,2.8l0,0C186.7,612.9,184,611.8,182.1,609.8z M616.4,595c-4.3-3.6-4.9-10-1.2-14.3
	l0,0c3.6-4.3,10-4.9,14.3-1.3l0,0c4.3,3.7,4.9,10,1.2,14.4l0,0l0,0l0,0c-2,2.4-4.9,3.6-7.7,3.6l0,0
	C620.7,597.4,618.3,596.6,616.4,595z M154.9,577.6L154.9,577.6L154.9,577.6c-3.3-4.5-2.3-10.9,2.2-14.3l0,0
	c4.5-3.3,10.9-2.3,14.2,2.2l0,0c3.3,4.5,2.3,10.9-2.2,14.3l0,0c-1.8,1.3-3.9,1.9-6,1.9l0,0C160,581.7,156.9,580.3,154.9,577.6z
	 M641.5,562.9c-4.7-3-6.2-9.3-3.3-14l0,0c3-4.8,9.3-6.2,14-3.2l0,0c4.7,2.9,6.2,9.2,3.3,14l0,0l0,0l0,0c-2,3.1-5.3,4.8-8.7,4.8l0,0
	C645,564.5,643.2,563.9,641.5,562.9z M132.5,541.9c-2.6-4.9-0.8-11.1,4.1-13.8l0,0c5-2.7,11.1-0.7,13.8,4.2l0,0
	c2.6,4.9,0.8,11.1-4.1,13.8l0,0c-1.6,0.8-3.2,1.2-4.8,1.2l0,0C137.9,547.3,134.4,545.3,132.5,541.9z M661.9,527.6
	c-5.2-2.3-7.5-8.3-5.2-13.4l0,0c2.2-5.2,8.3-7.5,13.4-5.2l0,0c5.1,2.2,7.4,8.3,5.2,13.4l0,0c-1.7,3.8-5.4,6-9.4,6l0,0
	C664.6,528.5,663.2,528.2,661.9,527.6z M115.3,503.5L115.3,503.5L115.3,503.5c-1.9-5.3,0.8-11.1,6.1-13.1l0,0
	c5.2-1.9,11.1,0.8,13,6.1l0,0c1.9,5.3-0.8,11.1-6.1,13l0,0c-1.1,0.5-2.3,0.7-3.5,0.7l0,0C120.7,510.1,116.8,507.6,115.3,503.5z
	 M677.2,489.8c-5.4-1.6-8.6-7.2-7-12.6l0,0c1.6-5.4,7.2-8.6,12.6-7l0,0c5.4,1.6,8.6,7.2,7,12.6l0,0l0,0l0,0
	c-1.3,4.4-5.4,7.3-9.8,7.3l0,0C679,490.2,678.1,490.1,677.2,489.8z M103.6,463L103.6,463L103.6,463c-1.2-5.5,2.3-10.9,7.9-12.1l0,0
	c5.4-1.2,10.9,2.4,12,7.8l0,0c1.2,5.5-2.3,10.9-7.8,12.1l0,0c-0.7,0.1-1.4,0.2-2.1,0.2l0,0C108.9,471,104.6,467.8,103.6,463z
	 M687,450.3c-5.6-0.8-9.5-5.9-8.7-11.5l0,0c0.7-5.6,5.9-9.5,11.5-8.7l0,0c5.6,0.7,9.4,5.9,8.7,11.5l0,0c-0.7,5.1-5.1,8.8-10.1,8.8
	l0,0C687.9,450.4,687.5,450.4,687,450.3z M97.7,421.2c-0.4-5.6,3.9-10.4,9.4-10.9l0,0c5.6-0.4,10.5,3.8,10.9,9.4l0,0
	c0.4,5.6-3.8,10.4-9.4,10.9l0,0c-0.2,0-0.5,0.1-0.7,0.1l0,0C102.5,430.7,98.1,426.6,97.7,421.2z M681,399.6c0-0.2,0-0.4,0.1-0.6l0,0
	c-0.1-0.2-0.1-0.4-0.1-0.5l0,0c0-5.6,4.5-10.2,10.2-10.2l0,0c5.6,0,10.2,4.5,10.2,10.1l0,0c0,0.3,0,0.5,0,0.7l0,0c0,0.2,0,0.4,0,0.6
	l0,0c0,5.6-4.5,10.2-10.2,10.2l0,0C685.6,409.8,681,405.2,681,399.6z M107.1,390c-5.6-0.3-9.9-5.2-9.5-10.8l0,0l0,0l0,0
	c0.3-5.6,5.2-9.9,10.8-9.5l0,0c5.6,0.3,9.9,5.2,9.5,10.9l0,0c-0.3,5.4-4.8,9.5-10.1,9.5l0,0C107.5,390,107.3,390,107.1,390z
	 M678.1,359.2c-0.8-5.6,3.1-10.7,8.6-11.5l0,0c5.6-0.8,10.7,3,11.5,8.6l0,0c0.8,5.6-3.1,10.7-8.6,11.5l0,0c-0.5,0.1-1,0.1-1.5,0.1
	l0,0C683.2,368,678.9,364.3,678.1,359.2z M111.2,349.5c-5.5-1.2-9-6.6-7.9-12.1l0,0c1.2-5.5,6.6-9,12.1-7.9l0,0
	c5.5,1.2,9,6.6,7.9,12.1l0,0c-1,4.8-5.2,8.1-10,8.1l0,0C112.6,349.7,112,349.6,111.2,349.5z M669.9,320.8L669.9,320.8
	c-1.6-5.4,1.5-11.1,6.9-12.6l0,0c5.4-1.6,11.1,1.6,12.6,6.9l0,0l0,0l0,0c1.6,5.4-1.6,11.1-6.9,12.6l0,0c-1,0.3-1.9,0.4-2.8,0.4l0,0
	C675.2,328.1,671.1,325.2,669.9,320.8z M121,309.8c-5.3-1.9-8-7.7-6.1-13l0,0c1.9-5.2,7.7-8,13-6.1l0,0c5.3,1.9,8,7.7,6.1,13v0.1
	c-1.5,4.1-5.4,6.7-9.6,6.7l0,0C123.3,310.4,122.1,310.3,121,309.8z M656.3,284L656.3,284c-2.3-5.2-0.1-11.2,5.1-13.5l0,0
	c5.2-2.3,11.1,0,13.4,5.1l0,0c2.3,5.2,0.1,11.2-5.1,13.5l0,0c-1.4,0.6-2.8,0.9-4.1,0.9l0,0C661.7,289.9,658,287.7,656.3,284z
	 M136.2,272c-5-2.6-6.9-8.8-4.2-13.8l0,0c2.6-4.9,8.8-6.9,13.8-4.2l0,0c5,2.7,6.9,8.8,4.2,13.8l0,0c-1.8,3.4-5.4,5.4-9,5.4l0,0
	C139.3,273.2,137.7,272.8,136.2,272z M637.7,249.4L637.7,249.4c-3-4.8-1.6-11.1,3.2-14l0,0c4.7-3.1,11-1.6,14,3.2l0,0
	c3,4.8,1.6,11-3.2,14l0,0c-1.7,1-3.6,1.6-5.4,1.6l0,0C642.9,254.1,639.6,252.4,637.7,249.4z M156.5,236.7c-4.5-3.3-5.6-9.6-2.3-14.2
	l0,0c3.3-4.5,9.7-5.6,14.2-2.3l0,0c4.5,3.3,5.6,9.7,2.2,14.2l0,0c-2,2.7-5.1,4.2-8.2,4.2l0,0C160.4,238.6,158.3,238,156.5,236.7z
	 M614.4,217.7L614.4,217.7c-3.6-4.3-3.1-10.7,1.2-14.4l0,0c4.3-3.6,10.7-3.1,14.3,1.2l0,0c3.7,4.3,3.1,10.7-1.2,14.3l0,0
	c-1.9,1.6-4.3,2.4-6.6,2.4l0,0C619.3,221.3,616.5,220.1,614.4,217.7z M181.6,204.6c-4.1-3.9-4.2-10.4-0.3-14.5l0,0
	c3.9-4,10.3-4.1,14.4-0.3l0,0c4,3.9,4.1,10.4,0.3,14.4l0,0c-2,2.1-4.7,3.1-7.3,3.1l0,0C186.1,207.4,183.5,206.5,181.6,204.6z
	 M587.1,189.5L587.1,189.5c-4.2-3.7-4.6-10.2-0.8-14.3l0,0c3.7-4.2,10.2-4.5,14.3-0.8l0,0c4.2,3.7,4.5,10.2,0.8,14.4l0,0
	c-2,2.2-4.8,3.4-7.6,3.4l0,0C591.4,192.1,589,191.2,587.1,189.5z M210.8,176.2c-3.5-4.4-2.7-10.8,1.7-14.3l0,0
	c4.4-3.5,10.8-2.7,14.2,1.7l0,0c3.5,4.4,2.7,10.8-1.7,14.3l0,0c-1.8,1.4-4.1,2.2-6.2,2.2l0,0C215.8,180.1,212.8,178.7,210.8,176.2z
	 M556,165.4L556,165.4c-4.7-3.1-5.9-9.5-2.8-14.1l0,0c3.1-4.7,9.4-5.9,14.1-2.8l0,0l0,0l0,0c4.7,3.1,5.9,9.4,2.8,14.1l0,0
	c-2,2.9-5.2,4.5-8.5,4.5l0,0C559.7,167.1,557.8,166.5,556,165.4z M243.7,152.1c-2.8-4.9-1.2-11.1,3.7-13.9l0,0l0,0l0,0
	c4.9-2.8,11.1-1.2,14,3.7l0,0c2.8,4.9,1.2,11.1-3.7,13.9l0,0c-1.6,0.9-3.3,1.4-5.1,1.4l0,0C249,157.2,245.6,155.4,243.7,152.1z
	 M521.9,145.8c-5-2.4-7.1-8.5-4.7-13.6l0,0c2.4-5.1,8.5-7.2,13.6-4.7l0,0c0,0,0,0,0,0.1l0,0c5.1,2.4,7.2,8.5,4.7,13.6l0,0
	c-1.8,3.6-5.4,5.7-9.2,5.7l0,0C524.9,146.8,523.3,146.5,521.9,145.8z M279.6,132.9c-2.1-5.2,0.4-11.2,5.6-13.3l0,0
	c5.2-2.1,11.2,0.4,13.3,5.6l0,0c2.1,5.2-0.4,11.1-5.6,13.3l0,0c-1.3,0.5-2.6,0.7-3.9,0.7l0,0C285,139.2,281.2,136.9,279.6,132.9z
	 M485.4,131.2L485.4,131.2c-5.4-1.8-8.3-7.5-6.6-12.8l0,0c1.7-5.4,7.4-8.3,12.8-6.6l0,0l0,0l0,0c5.4,1.8,8.3,7.5,6.6,12.8l0,0
	c-1.4,4.3-5.4,7.1-9.7,7.1l0,0C487.5,131.6,486.4,131.5,485.4,131.2z M317.8,118.8c-1.4-5.4,1.9-10.9,7.3-12.4l0,0l0,0l0,0
	c5.5-1.4,11,2,12.4,7.4l0,0c1.4,5.4-2,11-7.4,12.3l0,0c-0.9,0.2-1.7,0.3-2.5,0.3l0,0C323.1,126.6,319,123.4,317.8,118.8z
	 M447.2,121.8c-5.6-1-9.2-6.2-8.3-11.7l0,0c1-5.6,6.2-9.3,11.7-8.3l0,0c5.6,0.9,9.3,6.2,8.3,11.8l0,0c-0.8,5-5.2,8.4-10,8.4l0,0
	C448.4,121.9,447.8,121.9,447.2,121.8z M357.7,110.3c-0.6-5.6,3.5-10.7,9-11.3l0,0l0,0l0,0c5.6-0.5,10.6,3.5,11.2,9.1l0,0
	c0.6,5.6-3.5,10.6-9,11.2l0,0c-0.4,0-0.7,0.1-1.1,0.1l0,0C362.6,119.4,358.2,115.5,357.7,110.3z M408.1,117.9
	c-5.6-0.2-10-4.9-9.8-10.4l0,0c0.1-5.6,4.8-10,10.4-9.9l0,0c5.6,0.2,10,4.9,9.9,10.5l0,0c-0.2,5.5-4.8,9.8-10.2,9.8l0,0
	C408.3,117.9,408.2,117.9,408.1,117.9z"/>
<path class="st0" d="M468.1,388c2.5-5,5-10.2,6.9-15.5c0.6-1.7,0.5-3.4-0.2-4.7c-0.8-1.6-2.5-2.8-4.8-3.4c-2.8-0.8-4.7,0.6-6.6,4.7
	c-2.3,4.8-4.6,9.6-7.1,14.7c-1.1,2.2-2.2,4.5-3.3,6.8l-0.4,0.9l-0.5-0.9c-0.3-0.6-0.6-1.2-0.9-1.7c-0.5-1-1-1.7-1.2-2.5
	c-0.4-1.7-0.8-3.5-1.2-5.2c-0.5-2.2-1-4.5-1.6-6.7c-1.1-4-0.5-7.9,1.9-12.2c0.8-1.4,1.6-2.7,2.4-4c0.9-1.4,1.8-2.9,2.6-4.4
	c0.7-1.3,1.4-2.6,2.2-3.9c2.1-3.7,4.3-7.6,5.9-11.5c2.6-6.5-0.4-13.6-7.2-16.9c-2.2-1.1-4.5-2.1-6.7-2.1c-1.1,0-2.1,0.2-3.1,0.8
	c-8.7,4.7-13.9,11-15.2,18.5c-1,5.4-0.2,11.2,0.5,16.9l0.2,1.3c1,7.6,1.3,13.9-3.8,19.6c-1.6,1.8-2.9,4-4.1,6.1l-0.1,0.3
	c-0.6,1.1-1.2,2.1-1.9,3.2c-2,3.4-4.1,7-5.6,10.7c-1.4,3.4-2,7.5-1.8,11.1c0.3,6.5,4.7,13,12.5,13c1.4,0,2.9-0.2,4.4-0.6
	c4.4-1.2,8.5-2.9,12.9-4.6c1.9-0.8,4-1.6,6-2.3l0.3-0.1l0.2,0.3c0.1,0.1,0.1,0.1,0.2,0.2c0.3,0.3,0.7,0.7,0.9,1.2
	c0.7,1.8,1.4,3.6,2.1,5.4c0.8,2.2,1.7,4.4,2.6,6.5c1.5,3.7,4.3,6,7.3,6c0.6,0,1.3-0.1,1.9-0.3c1.5-0.4,2.7-1.6,3.4-3.2
	c0.9-2,1-4.4,0.2-6.3c-0.5-1.3-1.5-2.9-2.7-4.8c-3.4-5.6-7.6-12.5-4.6-17c2.7-4.4,4.8-8,6.5-11.5L468.1,388z M440.8,402.6l-0.3,0.2
	c-3.3,1.6-6.8,3.3-10.3,4.5c-0.4,0.1-0.7,0.2-1.1,0.2l0,0c-0.8,0-1.5-0.3-1.9-0.9c-0.6-0.7-0.8-1.8-0.5-2.9c1-3.9,2.2-7.3,3.5-10.5
	c0.9-2,2.1-3.9,3.3-5.8c0.5-0.8,1-1.6,1.5-2.5l0.2-0.3l1.9,0.4l0.1,0.3c0.4,1.1,0.8,2.2,1.2,3.3c1.4,3.7,2.8,7.4,4,11.2
	C442.6,400.6,441.7,402.1,440.8,402.6z M443.8,355.2l-0.6-0.7c-2-2.3-2.8-6-2.3-9.9c0.5-3.7,2.2-6.8,4.4-8.3c0.8-0.5,2.1-1,2.8-0.6
	c0.8,0.4,1.2,2,0.9,2.8c-1.2,4.1-2.5,8.2-3.8,12.2L443.8,355.2z"/>
</svg>
